<?xml version="1.0" encoding="UTF-8" standalone="no"?>
<svg width="193px" height="51px" viewBox="0 0 193 51" version="1.1" xmlns="http://www.w3.org/2000/svg" xmlns:xlink="http://www.w3.org/1999/xlink">
    <!-- Generator: Sketch 39.1 (31720) - http://www.bohemiancoding.com/sketch -->
    <title>Logo</title>
    <desc>Created with Sketch.</desc>
    <defs></defs>
    <g id="Page-1" stroke="none" stroke-width="1" fill="none" fill-rule="evenodd">
        <g id="Landing-Sessions-Open" transform="translate(-63.000000, -79.000000)" fill="#00FCDD">
            <g id="Header" transform="translate(0.000000, 64.000000)">
                <g id="Logo" transform="translate(63.000000, 15.000000)">
                    <path d="M62.0023616,9.82377049 C62.1172316,10.0018525 62.1663427,10.1581967 62.2312693,10.492623 C62.679096,10.0545246 63.2318041,9.82377049 63.832791,9.82377049 C64.3771751,9.82377049 64.8233371,10.0018525 65.1696121,10.3630328 C65.2611751,10.455 65.3510734,10.5720492 65.4301507,10.6865902 C66.0294727,10.0679016 66.5680301,9.82544262 67.288049,9.82544262 C67.8016347,9.82544262 68.2902486,9.97844262 68.58658,10.2351148 C68.9578267,10.5578361 69.0760264,10.9457705 69.0760264,11.8487213 L69.0760264,16.5407213 L67.407081,16.5407213 L67.407081,12.1814754 C67.407081,11.3939016 67.3155179,11.2400656 66.8685235,11.2400656 C66.5463879,11.2400656 66.096064,11.4607869 65.7256497,11.7952131 L65.7256497,16.5407213 L64.0974915,16.5407213 L64.0974915,12.2433443 C64.0974915,11.4214918 63.9784595,11.2283607 63.5014991,11.2283607 C63.182693,11.2283607 62.7440226,11.3930656 62.3736083,11.73 L62.3736083,16.5407213 L60.6938418,16.5407213 L60.6938418,11.9356721 C60.6938418,10.9825574 60.6272505,10.5728852 60.4482863,10.2468197 L62.0023616,9.82460656 L62.0023616,9.82377049 Z M75.2199096,10.8019672 C75.7443164,11.4206557 75.9790508,12.1421803 75.9790508,13.2123443 C75.9790508,14.3468852 75.7193446,15.121082 75.1549831,15.7640164 C74.655548,16.332541 74.0004557,16.6811803 72.9882674,16.6811803 C71.2036196,16.6811803 70.0382712,15.3401311 70.0382712,13.2650164 C70.0382712,11.1899016 71.2169379,9.80955738 72.9890998,9.80955738 C73.9263729,9.80955738 74.6563804,10.1331148 75.2199096,10.8011311 L75.2199096,10.8019672 Z M72.1275744,11.755082 C72.0110395,12.1062295 71.9494426,12.5677377 71.9494426,13.2265574 C71.9494426,13.9848689 72.0260226,14.5559016 72.1675292,14.8903279 C72.3206893,15.2498361 72.7085838,15.4295902 73.0382109,15.4295902 C73.7832015,15.4295902 74.1036723,14.7607377 74.1036723,13.1989672 C74.1036723,12.3110656 73.9871375,11.7291639 73.7573974,11.4323607 C73.590919,11.2149836 73.3245537,11.0845574 73.0140716,11.0845574 C72.6020377,11.0845574 72.2699134,11.3412295 72.1284068,11.755918 L72.1275744,11.755082 Z M81.5119586,9.94081967 L81.5119586,11.1238525 L78.6085763,15.3401311 L81.6251638,15.3401311 L81.2156271,16.5407213 L76.3794313,16.5407213 L76.3794313,15.4705574 L79.4676045,11.1522787 L76.6358079,11.1522787 L76.6358079,9.93998361 L81.5136234,9.93998361 L81.5119586,9.94081967 Z M84.4195028,8.12070492 C84.4195028,8.71431148 83.9492015,9.18836066 83.3557062,9.18836066 C82.7813559,9.18836066 82.3052279,8.71514754 82.3052279,8.12070492 C82.3052279,7.52960656 82.796339,7.05054098 83.3848399,7.05054098 C83.9591902,7.05054098 84.4195028,7.52960656 84.4195028,8.12070492 L84.4195028,8.12070492 Z M84.2172316,9.78447541 L84.2172316,16.5398852 L82.4991751,16.5398852 L82.4991751,10.0545246 L84.218064,9.78363934 L84.2172316,9.78447541 Z M87.3486893,8.71514754 L87.3486893,13.8569508 C87.3486893,14.994 87.3636723,15.147 87.4652241,15.3267541 C87.5318154,15.4438033 87.6708249,15.5065082 87.8123315,15.5065082 C87.8764256,15.5065082 87.9122185,15.5065082 88.0054463,15.4814262 L88.2984482,16.5139672 C88.0054463,16.6285082 87.6466855,16.6928852 87.2746064,16.6928852 C86.5421017,16.6928852 85.9511036,16.345918 85.7463352,15.7924426 C85.6181469,15.4580164 85.5881808,15.249 85.5881808,14.3092623 L85.5881808,9.38232787 C85.5881808,8.51867213 85.5682034,7.99278689 85.5024444,7.39834426 L87.258791,6.99703279 C87.3203879,7.35654098 87.3478569,7.78293443 87.3478569,8.71431148 L87.3486893,8.71514754 Z M90.9154878,8.71514754 L90.9154878,13.8569508 C90.9154878,14.994 90.9321356,15.147 91.0361846,15.3267541 C91.0961168,15.4438033 91.2359586,15.5065082 91.3807947,15.5065082 C91.4448889,15.5065082 91.4840113,15.5065082 91.574742,15.4814262 L91.8685763,16.5139672 C91.574742,16.6285082 91.2126516,16.6928852 90.8422373,16.6928852 C90.1097326,16.6928852 89.5187345,16.345918 89.3139661,15.7924426 C89.1824482,15.4580164 89.160806,15.249 89.160806,14.3092623 L89.160806,9.38232787 C89.160806,8.51867213 89.1333371,7.99278689 89.0692429,7.39834426 L90.8255895,6.99703279 C90.894678,7.35654098 90.9171525,7.78293443 90.9171525,8.71431148 L90.9154878,8.71514754 Z M93.6132693,10.1832787 C94.2542109,9.91406557 94.8035895,9.79868852 95.4070734,9.79868852 C96.5141544,9.79868852 97.2699661,10.2083607 97.5296723,10.9440984 C97.6129115,11.2149836 97.6545311,11.4206557 97.6462072,12.1296393 L97.6045876,14.3468852 L97.6045876,14.4639344 C97.6045876,15.172918 97.7211224,15.4421311 98.2247194,15.8166885 L97.3107533,16.8751475 C96.9095405,16.7079344 96.5499473,16.408623 96.3843013,16.0750328 C96.2577778,16.205459 96.1154388,16.3317049 95.9847533,16.4211639 C95.6651149,16.6552623 95.2023051,16.7848525 94.6612505,16.7848525 C93.1995706,16.7848525 92.4029718,16.0365738 92.4029718,14.7239508 C92.4029718,13.1738852 93.4700979,12.4523607 95.5594011,12.4523607 C95.6867571,12.4523607 95.8041243,12.4523607 95.9464633,12.4674098 L95.9464633,12.1998689 C95.9464633,11.462459 95.8049567,11.2174918 95.172339,11.2174918 C94.6279548,11.2174918 93.9795217,11.4867049 93.2761507,11.9640984 L92.5419812,10.7267213 C92.8915857,10.5093443 93.1496271,10.378082 93.6116045,10.1849508 L93.6132693,10.1832787 Z M95.8440791,13.6529508 C94.6537589,13.6529508 94.2375631,13.8703279 94.2375631,14.6595738 C94.2375631,15.172918 94.5621959,15.5207213 94.9975367,15.5207213 C95.3180075,15.5207213 95.6409755,15.3535082 95.8931902,15.0692459 L95.9223239,13.6521148 L95.8432467,13.6521148 L95.8440791,13.6529508 Z" id="Mozilla"></path>
                    <path d="M60.6255857,20.0513607 L71.0737665,20.0513607 L70.6301017,23.1974754 L64.5061959,23.1974754 L64.5061959,27.6236066 L69.4114802,27.6236066 L69.4114802,30.7964754 L64.5061959,30.7964754 L64.5061959,39.3410656 L60.6272505,39.3410656 L60.6272505,20.0521967 L60.6255857,20.0513607 Z M81.4969755,35.5561967 L82.938678,37.7826393 C81.3021959,39.1203443 79.5841394,39.7599344 77.588064,39.7599344 C73.514339,39.7599344 70.8823164,36.8646393 70.8823164,32.3824918 C70.8823164,29.8241311 71.4083879,28.126918 72.6553107,26.7331967 C73.8206591,25.4255902 75.2332279,24.8127541 77.1169303,24.8127541 C78.75258,24.8127541 80.3049906,25.3695738 81.2189567,26.3176721 C82.5208173,27.6528689 83.1034915,29.5733115 83.1034915,32.551377 L83.1034915,33.4125246 L74.9002712,33.4125246 L74.9002712,33.5245574 C74.9002712,35.7234098 75.9823804,36.9775082 77.8935518,36.9775082 C79.1671111,36.9775082 80.359096,36.503459 81.4953107,35.5578689 L81.4969755,35.5561967 Z M74.9577062,30.6852787 L79.2528475,30.6852787 L79.2528475,30.5180656 C79.2528475,29.4604426 79.1421394,28.904459 78.8116798,28.3752295 C78.4495895,27.8175738 77.9235179,27.5391639 77.1751977,27.5391639 C75.762629,27.5391639 74.9585386,28.6511311 74.9585386,30.6292623 L74.9585386,30.6844426 L74.9577062,30.6852787 Z M95.4653409,26.035082 L94.245887,28.5407705 C92.8333183,27.8175738 91.8069793,27.5124098 90.7548362,27.5124098 C89.6727269,27.5124098 88.9527081,28.0692295 88.9527081,28.903623 C88.9527081,29.6276557 89.4230094,30.0180984 90.7257024,30.3500164 L92.4437589,30.7964754 C94.1892844,31.2420984 94.7711262,31.7704918 95.2697288,32.4117541 C95.7966328,33.0806066 96.0455179,33.8865738 96.0455179,34.833 C96.0455179,37.7843115 93.6066102,39.7883607 89.9773823,39.7883607 C88.2310245,39.7883607 86.3181883,39.2307049 84.2405386,38.1446557 L85.5707006,35.4165738 C86.7069153,36.1138525 88.6755217,37.0318525 90.2820377,37.0318525 C91.3341808,37.0318525 92.1665725,36.3362459 92.1665725,35.4182459 C92.1665725,34.4433934 91.4740226,33.9417541 89.9773823,33.6641803 L88.3142637,33.3573443 C87.3711638,33.1901311 86.2083126,32.5229508 85.7088776,31.9109508 C85.2094426,31.2989508 84.9047872,30.268082 84.9047872,29.3492459 C84.9047872,26.5668197 87.0939774,24.7007213 90.3919134,24.7007213 C92.6643427,24.7007213 94.1609831,25.3963279 95.4628437,26.0367541 L95.4653409,26.035082 Z M105.722072,25.0619016 L104.778972,27.54 L102.395002,27.54 L102.395002,34.8037377 C102.395002,36.6138197 102.727959,37.0861967 104.003183,37.0861967 C104.336139,37.0861967 104.669096,37.0025902 105.333345,36.8077869 L105.804478,39.0350656 C104.722369,39.4781803 103.753465,39.6746557 102.782896,39.6746557 C100.898362,39.6746557 99.3742524,38.8385902 98.9580565,37.5861639 C98.7366403,36.9741639 98.708339,36.6965902 98.708339,35.3873115 L98.708339,27.54 L97.2957702,27.54 L97.2957702,25.1187541 L98.7091714,25.1187541 C98.7091714,23.7258689 98.7091714,22.7802787 98.8481808,21.7226557 L102.616418,20.7753934 C102.476576,22.083 102.393337,23.6138361 102.393337,25.0619016 L105.720407,25.0619016 L105.722072,25.0619016 Z M108.768625,18.8532787 C110.017213,18.8532787 111.014418,19.8841475 111.014418,21.165 C111.014418,22.4458525 109.988911,23.4758852 108.713687,23.4758852 C107.466765,23.4758852 106.441258,22.4450164 106.441258,21.1641639 C106.441258,19.8833115 107.495898,18.8532787 108.769458,18.8532787 L108.768625,18.8532787 Z M106.857454,25.3411475 L110.571586,24.7559016 L110.571586,39.3410656 L106.857454,39.3410656 L106.857454,25.3411475 L106.857454,25.3411475 Z M112.123164,25.3127213 L115.920535,24.8395082 L117.971548,31.2688525 C118.275371,32.2152787 118.691567,33.774541 118.887179,34.693377 C118.997887,33.8573115 119.30171,32.4945246 119.744542,31.0748852 L121.657379,25.0911639 L125.536324,25.0911639 L120.354685,39.3427377 L117.278166,39.3427377 L112.123164,25.3135574 L112.123164,25.3127213 Z M126.505228,26.787541 C127.420859,26.2022951 127.807089,26.0083279 128.805959,25.6187213 C130.191058,25.0351475 131.383876,24.7843279 132.684904,24.7843279 C135.068041,24.7843279 136.703691,25.6755738 137.257232,27.2615902 C137.451179,27.8468361 137.506949,28.291623 137.506949,29.821623 L137.42371,34.6097705 L137.42371,34.8605902 C137.42371,36.3905902 137.673427,36.9758361 138.753872,37.7826393 L136.78693,40.0650984 C135.929567,39.703082 135.151281,39.0634918 134.79252,38.338623 C134.265616,38.8402623 134.209846,38.8954426 133.933492,39.091082 C133.240109,39.5910492 132.243736,39.8702951 131.078388,39.8702951 C127.919461,39.8702951 126.202237,38.2541803 126.202237,35.4157377 C126.202237,32.0756557 128.501303,30.5180656 133.019525,30.5180656 C133.294215,30.5180656 133.460693,30.5180656 133.84942,30.5456557 L133.84942,29.9604098 C133.84942,28.3743934 133.545597,27.8451639 132.187134,27.8451639 C130.996814,27.8451639 129.610049,28.4304098 128.08594,29.4604426 L126.50606,26.7850328 L126.505228,26.787541 Z M133.792817,33.1065246 L133.626339,33.1065246 C131.049254,33.1065246 130.163589,33.5797377 130.163589,35.2769508 C130.163589,36.3905902 130.856139,37.1430492 131.798407,37.1430492 C132.490957,37.1430492 133.183507,36.7801967 133.737879,36.1681967 L133.792817,33.1065246 L133.792817,33.1065246 Z M144.464911,18.742918 C144.603089,19.5221311 144.658026,20.4401311 144.658026,22.4450164 L144.658026,33.5513115 C144.658026,36.0009836 144.685495,36.3354098 144.907744,36.7250164 C145.045921,36.9758361 145.350576,37.1137869 145.655232,37.1137869 C145.794241,37.1137869 145.87748,37.1137869 146.071427,37.0594426 L146.70904,39.2867213 C146.070595,39.5358689 145.295638,39.6763279 144.49238,39.6763279 C142.912501,39.6763279 141.637277,38.9238689 141.194444,37.7282951 C140.917258,37.0034262 140.861488,36.5578033 140.861488,34.5261639 L140.861488,23.8947541 C140.861488,22.0286557 140.807382,20.8874262 140.66754,19.6057377 L144.464911,18.742918 L144.464911,18.742918 Z" id="Festival"></path>
                    <text id="2016" font-family="FiraSans-Light, Fira Sans" font-size="22" font-weight="300">
                        <tspan x="150.5" y="39">2016</tspan>
                    </text>
                    <path d="M25.7458757,50.4716066 C24.5031149,50.4716066 23.2470358,50.3771311 22.0125989,50.1890164 L21.5897439,50.1254754 L21.2259887,49.2501148 C20.0606403,46.4576557 17.2113635,44.5815246 14.139838,44.5815246 C13.2441846,44.5815246 12.3693409,44.740377 11.5386139,45.0530656 L10.6587759,45.3891639 L10.3216573,45.121623 C8.54200377,43.7228852 6.96711864,42.0984098 5.63862147,40.2908361 L5.38557439,39.946377 L5.746,39.0626557 C7.2726064,35.3103934 5.5245838,30.8917869 1.85040678,29.2138033 L0.984719397,28.8208525 L0.934775895,28.394459 C0.665913371,26.1655082 0.701706215,23.8964262 1.03799247,21.6557705 L1.10125424,21.2318852 L1.97110358,20.8640164 C5.69439171,19.2955574 7.56893785,14.9321311 6.14970998,11.1372295 L5.81925047,10.2493279 L6.08311864,9.91322951 C7.47654237,8.12404918 9.09387947,6.54388525 10.8910132,5.21203279 L11.2322938,4.95703279 L12.1129642,5.31821311 C13.0036234,5.68440984 13.9492203,5.87001639 14.9214539,5.87001639 C17.9471977,5.87001639 20.6949228,4.11762295 21.9185386,1.40709836 L22.3122599,0.537590164 L22.7367797,0.485754098 C24.9526064,0.216540984 27.227533,0.251655738 29.4458569,0.591098361 L29.8678795,0.65547541 L30.232467,1.52916393 C31.3994802,4.31995082 34.2462599,6.19691803 37.3177853,6.19691803 C38.2126064,6.19691803 39.0882825,6.03806557 39.9190094,5.72537705 L40.8055066,5.39429508 L41.1384633,5.65598361 C42.916452,7.05388525 44.4896723,8.67752459 45.8181695,10.4842623 L46.0712166,10.8270492 L45.710791,11.7132787 C44.1825198,15.4672131 45.9305424,19.8841475 49.6063842,21.5621311 L50.4720716,21.9567541 L50.5220151,22.3814754 C50.7925424,24.6120984 50.7575819,26.8795082 50.4196309,29.1201639 L50.3563691,29.5440492 L49.4865198,29.9102459 C45.7623992,31.479541 43.8878531,35.8446393 45.3062486,39.639541 L45.6392053,40.5257705 L45.3761695,40.864377 C43.9844105,42.649377 42.3654087,44.2312131 40.5649454,45.5655738 L40.222,45.8205738 L39.3413296,45.4560492 C38.4523352,45.0906885 37.5100678,44.905918 36.5361695,44.905918 C33.511258,44.905918 30.7651977,46.6583115 29.5399171,49.3705082 L29.1461959,50.2375082 L28.7233409,50.2901803 C27.7386215,50.4089016 26.7372542,50.4699344 25.7458757,50.4699344 L25.7458757,50.4716066 Z M22.6593672,48.7409508 C24.4706516,48.9834098 26.3094049,49.011 28.1198569,48.8245574 L28.1564821,48.7409508 C29.6281507,45.4869836 32.9177627,43.3842787 36.5353371,43.3842787 C37.7040151,43.3842787 38.8410621,43.6100164 39.9148475,44.0481148 L40.003081,44.0857377 C41.4447834,42.9737705 42.7582976,41.6895738 43.915322,40.2607377 L43.8853559,40.1788033 C42.1831149,35.6247541 44.4314049,30.3884754 48.896354,28.5073279 L48.9779284,28.4738852 C49.219322,26.647082 49.2476234,24.8060656 49.0628324,22.9892951 L48.9779284,22.95 C44.5687495,20.9392623 42.4736196,15.6402787 44.3057137,11.1380656 L44.3415066,11.0511148 C43.2360904,9.60221311 41.9567043,8.28206557 40.5324821,7.12160656 L40.4475782,7.15337705 C39.4487081,7.52960656 38.3940678,7.72190164 37.3161205,7.72190164 C33.6419435,7.72190164 30.232467,5.47121311 28.8315518,2.11859016 L28.7982561,2.0374918 C26.9878041,1.79503279 25.1507156,1.76577049 23.3377665,1.95137705 L23.3003089,2.0374918 C21.8303051,5.29145902 18.5415254,7.39416393 14.9214539,7.39416393 C13.7519435,7.39416393 12.6157288,7.17009836 11.5402787,6.7294918 L11.45371,6.69270492 C10.0136723,7.803 8.69849341,9.08803279 7.54146893,10.519377 L7.57309981,10.6029836 C9.27367608,15.1545246 7.02538606,20.3882951 2.55960452,22.2711148 L2.47969492,22.3028852 C2.23830132,24.1305246 2.20916761,25.9707049 2.39395857,27.7874754 L2.47719774,27.8259344 C6.88637665,29.8375082 8.98233898,35.1373279 7.15024482,39.639541 L7.11694915,39.7256557 C8.22153296,41.1745574 9.50008663,42.4947049 10.9251412,43.6551639 L11.0033861,43.6267377 C12.0080829,43.248 13.0627232,43.056541 14.1415028,43.056541 C17.8148475,43.056541 21.2251563,45.3089016 22.6260716,48.6615246 L22.6593672,48.7409508 L22.6593672,48.7409508 Z M25.7292279,43.3416393 C15.87371,43.3416393 7.85444821,35.2878197 7.85444821,25.3888033 C7.85444821,15.4897869 15.8728776,7.50536066 25.7275631,7.43847541 C30.255774,7.40670492 34.9188324,9.29454098 38.3657665,12.6956557 C41.7735782,16.0549672 43.6015104,20.5939672 43.6015104,25.3888033 C43.6015104,35.2878197 35.583081,43.3416393 25.7300603,43.3416393 L25.7292279,43.3416393 Z M25.7292279,8.96262295 C16.7102637,8.96262295 9.3727307,16.3308689 9.3727307,25.3888033 C9.3727307,34.4467377 16.7094313,41.8174918 25.7292279,41.8174918 C34.7440301,41.8174918 42.0815631,34.4467377 42.0823955,25.3888033 C42.0823955,21.0011311 40.3809868,16.8759836 37.2928136,13.7733443 C34.2046403,10.6698689 30.0967872,8.96178689 25.7283955,8.96178689 L25.7292279,8.96262295 Z" id="Shape"></path>
                    <path d="M39.8157928,25.4565246 L35.7478945,18.9134754 L29.7014011,18.9134754 L26.1495857,13.1981311 L19.1949529,13.1981311 L15.2710584,19.7428525 L18.7354727,25.3946557 L15.2710584,31.173541 L19.1999473,37.5819836 L26.1454237,37.5819836 L29.7763164,31.8683115 L35.7429002,31.8683115 L39.8157928,25.4573607 L39.8157928,25.4565246 Z M23.1180151,31.1033115 L25.6534802,26.7357049 L28.3937137,31.2086557 L25.7250659,35.4090492 L23.1180151,31.1033115 L23.1180151,31.1033115 Z M25.6626365,15.2916393 L28.3620829,19.635 L26.2727797,23.1180492 L25.7250659,23.9791967 L23.1196798,19.6751311 L25.6626365,15.2924754 L25.6626365,15.2916393 Z M29.7763164,20.4367869 L33.8350584,20.4367869 L31.3661846,24.6906885 L27.100177,24.6906885 L27.5604896,23.9248525 L29.7763164,20.4367869 L29.7763164,20.4367869 Z M21.8444557,20.5003279 L24.3416309,24.6288197 L20.0481544,24.6288197 L17.5176836,20.5003279 L21.8444557,20.5003279 L21.8444557,20.5003279 Z M24.2367495,26.1521311 L21.7678757,30.4060328 L17.5027006,30.4060328 L20.0531488,26.1521311 L24.2375819,26.1521311 L24.2367495,26.1521311 Z M27.1368023,26.2156721 L31.4444294,26.2156721 L33.9416045,30.3424918 L29.7030659,30.3424918 L27.1359699,26.2156721 L27.1368023,26.2156721 Z M35.3250395,29.695377 L32.7196535,25.3896393 L35.2617778,21.0069836 L38.0228211,25.4481639 L35.3258719,29.695377 L35.3250395,29.695377 Z M20.0523164,14.7214426 L24.2367495,14.7214426 L21.7678757,18.9770164 L17.5027006,18.9770164 L20.0539812,14.7214426 L20.0523164,14.7214426 Z M17.5176836,31.9310164 L21.8444557,31.9310164 L24.3416309,36.0578361 L20.0481544,36.0578361 L17.5176836,31.9310164 L17.5176836,31.9310164 Z" id="Shape"></path>
                </g>
            </g>
        </g>
    </g>
</svg>